<svg width="28" height="28" viewBox="0 0 28 28" fill="none" xmlns="http://www.w3.org/2000/svg">
<path d="M25.9848 12.3186H21.6219L25.1507 8.78983C25.664 8.27655 25.664 7.44247 25.1507 6.86503C24.5732 6.35175 23.7392 6.35175 23.1617 6.86503L17.7723 12.3186H15.0134V9.55975L20.467 4.17032C20.9803 3.59288 20.9803 2.7588 20.467 2.18136C19.8896 1.66808 19.0555 1.66808 18.5422 2.18136L15.0134 5.71015V1.34728C15.0134 0.577362 14.436 -7.66069e-05 13.6661 -7.66069e-05C12.8961 -7.66069e-05 12.3187 0.577362 12.3187 1.34728V5.71015L8.7899 2.18136C8.27662 1.66808 7.44255 1.66808 6.86511 2.18136C6.35183 2.7588 6.35183 3.59288 6.86511 4.17032L12.3187 9.55975V12.3186H9.55982L4.17039 6.86503C3.59295 6.35175 2.75887 6.35175 2.18144 6.86503C1.66816 7.44247 1.66816 8.27655 2.18144 8.78983L5.71023 12.3186H1.34736C0.577439 12.3186 0 12.8961 0 13.666C0 14.4359 0.577439 15.0133 1.34736 15.0133H5.71023L2.18144 18.5421C1.66816 19.0554 1.66816 19.8895 2.18144 20.4669C2.75887 20.9802 3.59295 20.9802 4.17039 20.4669L9.55982 15.0133H12.3187V17.7722L6.86511 23.1616C6.35183 23.7391 6.35183 24.5732 6.86511 25.1506C7.44255 25.6639 8.27662 25.6639 8.7899 25.1506L12.3187 21.6218V25.9847C12.3187 26.7546 12.8961 27.332 13.6661 27.332C14.436 27.332 15.0134 26.7546 15.0134 25.9847V21.6218L18.5422 25.1506C19.0555 25.6639 19.8896 25.6639 20.467 25.1506C20.9803 24.5732 20.9803 23.7391 20.467 23.1616L15.0134 17.7722V15.0133H17.7723L23.1617 20.4669C23.7392 20.9802 24.5732 20.9802 25.1507 20.4669C25.664 19.8895 25.664 19.0554 25.1507 18.5421L21.6219 15.0133H25.9848C26.7547 15.0133 27.3321 14.4359 27.3321 13.666C27.3321 12.8961 26.7547 12.3186 25.9848 12.3186Z" fill="#1E40AF"/>
</svg>
